# xmcd
#
# Track frame offsets: 
# 182
# 13945
# 28065
# 42932
# 55825
# 67235
# 77115
# 89302
# 103597
# 119325
# 132185
# 146560
# 160867
#
# Disc length: 2324 seconds
# Submitted via: tkcNetwork 1.0
# Revision: 0
# Processed by: cddbd v1.5.2PL0 Copyright (c) Steve Scherf et al.
#
DISCID=b309120d
DTITLE=Michel Fugain - Collection GOLD
DYEAR=1996
DGENRE=Pop
TTITLE0=Attention Mesdames et Messieurs
TTITLE1=Fais comme l'oiseau
TTITLE2=Une belle histoire
TTITLE3=L'arche de Noé
TTITLE4=Dépèche-toi
TTITLE5=Les cerises de Mr Clement
TTITLE6=Les gens irremplaçables
TTITLE7=Soleil
TTITLE8=Ballade en Bugatti
TTITLE9=La corde au cou
TTITLE10=Je rends mon tablier
TTITLE11=Allez bouge-toi
TTITLE12=On laisse tous un jour
EXTD=
EXTT0=
EXTT1=
EXTT2=
EXTT3=
EXTT4=
EXTT5=
EXTT6=
EXTT7=
EXTT8=
EXTT9=
EXTT10=
EXTT11=
EXTT12=
PLAYORDER=
